<svg xmlns="http://www.w3.org/2000/svg" viewBox="-14 24 64 64">
  <path d="M17.77,34.048C7.971,34.048,0,42.019,0,51.817s7.971,17.77,17.77,17.77h5.844v-6.664H17.77 c-6.124,0-11.106-4.982-11.106-11.106s4.982-11.106,11.106-11.106s11.132,4.982,11.132,11.106l0,0v16.365l0,0 c0,6.084-4.954,11.039-11.023,11.103c-2.904-0.024-5.681-1.191-7.729-3.25l-4.712,4.712c3.266,3.283,7.691,5.151,12.321,5.201 v0.003c0.04,0,0.08,0,0.119,0h0.125v-0.003c9.659-0.131,17.48-8.005,17.525-17.686l0.006-16.881 C35.302,41.785,27.422,34.048,17.77,34.048z" />
</svg>
